<svg width="256" height="256" viewBox="0 0 256 256" fill="none" xmlns="http://www.w3.org/2000/svg">
<path d="M161.831 174.521L161.843 174.514L161.855 174.506C164.888 172.657 167.325 170.191 169.116 167.143C171.009 164.026 171.955 160.586 171.955 156.909C171.955 151.348 169.916 146.487 165.965 142.535C162.013 138.584 157.152 136.545 151.591 136.545C146.03 136.545 141.168 138.584 137.217 142.535C133.266 146.487 131.227 151.348 131.227 156.909C131.227 162.47 133.266 167.332 137.217 171.283C141.168 175.234 146.03 177.273 151.591 177.273C155.292 177.273 158.74 176.375 161.831 174.521ZM222.081 174.521L222.093 174.514L222.105 174.506C225.138 172.657 227.575 170.191 229.366 167.143C231.259 164.026 232.205 160.586 232.205 156.909C232.205 151.348 230.166 146.487 226.215 142.535C222.263 138.584 217.402 136.545 211.841 136.545C206.28 136.545 201.418 138.584 197.467 142.535C193.516 146.487 191.477 151.348 191.477 156.909C191.477 162.47 193.516 167.332 197.467 171.283C201.418 175.234 206.28 177.273 211.841 177.273C215.542 177.273 218.99 176.375 222.081 174.521ZM152.205 78H151H98.4546H90.75H37C29.268 78 23 84.268 23 92C23 99.732 29.268 106 37 106H90.75H98.4546H151H152.205H212.455C220.187 106 226.455 99.732 226.455 92C226.455 84.268 220.187 78 212.455 78H152.205Z" fill="white" stroke="white" stroke-width="8"/>
</svg>
